<?xml version="1.0" standalone="no"?>
<!DOCTYPE svg PUBLIC "-//W3C//DTD SVG 20010904//EN"
 "http://www.w3.org/TR/2001/REC-SVG-20010904/DTD/svg10.dtd">
<svg version="1.0" xmlns="http://www.w3.org/2000/svg"
 width="500.000000pt" height="500.000000pt" viewBox="0 0 500.000000 500.000000"
 preserveAspectRatio="xMidYMid meet">
<metadata>
Created by potrace 1.14, written by Peter Selinger 2001-2017
</metadata>
<g transform="translate(0.000000,500.000000) scale(0.100000,-0.100000)"
fill="#000000" stroke="none">
<path d="M2276 4843 c-4 -4 -26 -8 -49 -8 -24 -1 -47 -4 -52 -7 -6 -3 -20 -4
-32 -3 -13 1 -23 -1 -23 -4 0 -3 -10 -6 -22 -7 -22 0 -51 -5 -123 -20 -48 -9
-60 -12 -62 -14 -2 -2 -11 -3 -20 -4 -10 -1 -27 -7 -38 -13 -11 -6 -28 -9 -37
-8 -10 2 -18 -1 -18 -7 0 -5 -8 -8 -17 -7 -10 2 -28 -2 -39 -9 -12 -6 -24 -8
-28 -5 -3 3 -6 1 -6 -5 0 -7 -3 -11 -7 -10 -9 2 -82 -21 -98 -31 -5 -3 -12 -6
-15 -6 -3 -1 -26 -10 -52 -22 -25 -12 -56 -24 -67 -28 -12 -3 -21 -11 -21 -16
0 -6 -4 -8 -9 -4 -5 3 -12 1 -16 -5 -4 -6 -11 -8 -16 -5 -5 4 -9 2 -9 -4 0 -5
-16 -15 -35 -22 -19 -7 -35 -17 -35 -21 0 -4 -7 -8 -15 -8 -8 0 -15 -5 -15
-11 0 -5 -4 -7 -10 -4 -5 3 -10 1 -10 -5 0 -6 -4 -8 -10 -5 -5 3 -10 1 -10 -4
0 -6 -6 -11 -13 -11 -8 0 -22 -9 -32 -20 -10 -11 -24 -20 -32 -20 -7 0 -13 -4
-13 -10 0 -5 -7 -10 -15 -10 -8 0 -15 -4 -15 -10 0 -5 -4 -10 -10 -10 -5 0
-21 -9 -34 -21 -13 -12 -28 -22 -32 -23 -5 0 -17 -10 -29 -21 -11 -11 -37 -33
-59 -50 -45 -35 -218 -205 -261 -256 -16 -20 -41 -50 -55 -68 -14 -18 -37 -45
-52 -61 -14 -16 -23 -31 -20 -34 3 -3 0 -6 -6 -6 -7 0 -12 -7 -12 -15 0 -9 -7
-18 -15 -21 -8 -4 -13 -9 -10 -14 2 -4 -4 -16 -13 -26 -10 -10 -27 -35 -38
-54 -10 -19 -22 -37 -26 -40 -4 -3 -12 -17 -17 -30 -6 -14 -26 -52 -45 -85
-19 -33 -32 -63 -29 -67 2 -5 1 -8 -4 -8 -6 0 -44 -77 -49 -100 0 -3 -5 -16
-11 -30 -33 -77 -52 -130 -47 -130 4 0 2 -6 -4 -13 -6 -7 -13 -24 -16 -37 -3
-14 -14 -56 -26 -95 -12 -38 -21 -82 -21 -97 0 -16 -5 -28 -10 -28 -6 0 -8 -3
-6 -7 3 -5 -1 -38 -8 -75 -7 -38 -11 -68 -8 -68 2 0 -1 -10 -8 -21 -9 -17 -8
-20 2 -14 8 6 10 4 4 -5 -13 -21 -16 -66 -19 -265 -1 -126 1 -192 8 -197 7 -5
6 -8 -2 -8 -8 0 -10 -5 -6 -12 4 -7 9 -28 10 -48 1 -19 3 -35 4 -35 1 0 4 -16
5 -35 5 -44 13 -105 15 -105 2 0 10 -36 15 -65 7 -44 15 -79 25 -104 5 -13 6
-27 3 -30 -4 -3 -1 -6 5 -6 6 0 9 -6 6 -14 -3 -8 -1 -17 5 -21 6 -3 11 -19 11
-36 0 -16 5 -29 11 -29 5 0 7 -5 4 -10 -3 -6 -2 -10 4 -10 5 0 8 -8 7 -17 -2
-10 7 -40 20 -68 24 -54 53 -122 54 -130 0 -3 16 -34 35 -70 19 -36 32 -65 27
-65 -4 0 1 -5 11 -11 9 -6 15 -14 12 -20 -4 -5 -1 -9 4 -9 6 0 11 -4 11 -9 0
-12 63 -115 73 -119 4 -2 7 -10 7 -17 0 -7 3 -15 8 -17 4 -1 23 -27 42 -55 19
-29 38 -53 43 -53 4 0 7 -7 7 -15 0 -8 9 -20 20 -27 11 -7 20 -19 20 -26 0 -7
5 -10 10 -7 6 3 10 0 10 -7 0 -13 211 -238 223 -238 3 0 21 -15 40 -32 19 -18
49 -44 67 -58 18 -14 38 -30 45 -37 7 -7 15 -9 19 -6 3 4 6 1 6 -5 0 -12 103
-82 120 -82 5 0 13 -6 17 -14 11 -19 245 -146 269 -146 8 0 14 -4 14 -10 0 -5
3 -9 8 -8 4 1 29 -8 56 -20 27 -12 54 -22 60 -22 7 0 16 -4 22 -10 5 -5 18
-11 29 -13 11 -1 25 -6 31 -9 6 -4 23 -9 39 -12 15 -3 33 -10 38 -15 5 -5 16
-7 23 -4 8 3 14 1 14 -4 0 -5 6 -10 13 -10 16 -1 81 -14 137 -28 41 -10 66
-15 105 -21 22 -3 54 -8 70 -10 17 -3 54 -6 82 -7 29 -1 53 -4 53 -8 0 -3 82
-4 183 -3 100 1 182 2 182 3 0 2 20 4 45 6 44 3 107 11 165 22 17 3 39 6 50 8
11 1 20 3 20 4 0 3 18 7 66 15 20 3 48 10 63 15 14 6 26 8 26 5 0 -2 9 0 21 6
11 6 30 14 42 16 32 7 51 12 57 14 3 1 8 2 13 1 4 0 7 4 7 9 0 5 3 9 8 8 12
-3 82 22 162 60 41 19 81 35 88 35 6 0 12 4 12 9 0 4 6 8 14 8 8 0 22 7 30 16
9 8 20 12 26 9 5 -3 10 -3 10 2 0 4 24 21 53 37 28 16 80 49 115 73 35 23 67
43 72 43 5 0 14 8 19 17 6 10 11 15 11 11 0 -5 9 0 19 10 29 26 101 85 124
101 31 22 224 218 255 259 15 20 34 43 42 52 8 9 24 29 35 44 11 16 26 34 33
42 7 8 11 14 8 14 -3 0 1 8 10 18 14 15 32 43 110 167 10 17 17 33 16 37 -1 5
2 8 7 8 7 0 18 24 20 46 0 2 7 12 16 20 8 9 13 19 10 24 -3 5 0 10 5 12 6 2
12 13 13 25 0 12 5 19 9 17 4 -3 10 8 14 23 4 15 10 33 14 38 11 15 55 139 52
148 -1 4 3 7 8 7 5 0 9 3 8 8 -1 4 4 25 10 47 6 22 12 43 12 48 0 4 6 23 15
43 8 19 14 38 14 42 -1 4 0 9 1 12 5 14 12 48 13 68 0 12 4 22 7 22 4 0 6 10
5 22 -1 13 0 28 4 33 3 6 7 21 7 35 1 14 3 25 4 25 5 0 20 154 26 270 6 93 6
78 -1 185 -5 86 -9 129 -20 230 -4 30 -7 61 -7 68 -1 6 -5 12 -10 12 -5 0 -6
4 -3 10 3 5 1 27 -4 47 -6 21 -13 52 -16 68 -7 34 -7 34 -25 95 -8 25 -14 47
-15 50 -3 15 -29 92 -47 140 -33 88 -43 110 -49 110 -3 0 -6 6 -6 13 0 7 -12
39 -27 70 -14 31 -26 60 -25 63 0 4 -6 11 -15 16 -9 5 -16 18 -16 28 0 11 -4
20 -10 20 -5 0 -10 5 -10 11 0 6 -13 30 -30 54 -16 24 -30 48 -30 54 0 6 -5
11 -12 11 -6 0 -9 3 -5 6 3 4 1 12 -6 19 -7 7 -19 23 -27 35 -8 13 -23 32 -32
42 -10 10 -18 21 -18 26 0 4 -13 22 -30 40 -16 18 -30 35 -30 37 0 11 -255
275 -265 275 -2 0 -17 11 -32 25 -16 14 -41 36 -58 50 -46 39 -232 165 -244
165 -5 0 -15 8 -20 18 -6 9 -11 14 -11 9 0 -4 -18 4 -40 18 -22 14 -40 22 -40
18 0 -5 -4 -3 -8 3 -8 12 -123 69 -134 66 -5 -1 -8 2 -8 6 0 5 -6 9 -12 9 -7
0 -29 7 -48 15 -84 37 -125 53 -130 52 -3 -1 -21 4 -40 11 -61 22 -174 54
-210 59 -19 2 -35 5 -35 6 0 2 -34 9 -75 14 -19 3 -35 5 -35 6 0 3 -92 13
-132 14 -24 1 -43 3 -43 7 0 9 -344 5 -359 -5 -10 -6 -12 -6 -7 2 8 13 3 16
-8 5z"/>
</g>
</svg>
